<?xml version="1.0" encoding="UTF-8" standalone="no"?>
<!DOCTYPE svg PUBLIC "-//W3C//DTD SVG 1.1//EN"
 "http://www.w3.org/Graphics/SVG/1.1/DTD/svg11.dtd">
<!-- Generated by graphviz version 8.1.0 (20230707.0739)
 -->
<!-- Title: Database Structure Pages: 1 -->
<svg width="3881pt" height="2742pt"
 viewBox="0.00 0.00 3880.86 2742.00" xmlns="http://www.w3.org/2000/svg" xmlns:xlink="http://www.w3.org/1999/xlink">
<g id="graph0" class="graph" transform="scale(1 1) rotate(0) translate(4 2738)">
<title>Database Structure</title>
<polygon fill="white" stroke="none" points="-4,4 -4,-2738 3876.86,-2738 3876.86,4 -4,4"/>
<text text-anchor="middle" x="1936.43" y="-2716.7" font-family="Helvetica,sans-Serif" font-size="14.00">ER Diagram: tim_market</text>
<!-- auth_group -->
<g id="node1" class="node">
<title>auth_group</title>
<polygon fill="#dddddd" stroke="none" points="2032.86,-509 2032.86,-531 2120.86,-531 2120.86,-509 2032.86,-509"/>
<polygon fill="none" stroke="black" points="2032.86,-509 2032.86,-531 2120.86,-531 2120.86,-509 2032.86,-509"/>
<text text-anchor="start" x="2046.11" y="-514.7" font-family="Times,serif" font-size="14.00">auth_group</text>
<polygon fill="none" stroke="black" points="2032.86,-487 2032.86,-509 2120.86,-509 2120.86,-487 2032.86,-487"/>
<text text-anchor="start" x="2061.48" y="-493.7" font-family="Times,serif" font-size="14.00">id:</text>
<text text-anchor="start" x="2075.73" y="-493.7" font-family="Helvetica,sans-Serif" font-style="oblique" font-size="10.00">INT</text>
<polygon fill="none" stroke="black" points="2032.86,-465 2032.86,-487 2120.86,-487 2120.86,-465 2032.86,-465"/>
<text text-anchor="start" x="2035.61" y="-471.7" font-family="Times,serif" font-size="14.00">name:</text>
<text text-anchor="start" x="2069.36" y="-471.7" font-family="Helvetica,sans-Serif" font-style="oblique" font-size="10.00">VARCHAR</text>
</g>
<!-- auth_group_permissions -->
<g id="node2" class="node">
<title>auth_group_permissions</title>
<polygon fill="#dddddd" stroke="none" points="482.36,-531 482.36,-553 621.36,-553 621.36,-531 482.36,-531"/>
<polygon fill="none" stroke="black" points="482.36,-531 482.36,-553 621.36,-553 621.36,-531 482.36,-531"/>
<text text-anchor="start" x="485.11" y="-536.7" font-family="Times,serif" font-size="14.00">auth_group_permissions</text>
<polygon fill="none" stroke="black" points="482.36,-509 482.36,-531 621.36,-531 621.36,-509 482.36,-509"/>
<text text-anchor="start" x="536.48" y="-515.7" font-family="Times,serif" font-size="14.00">id:</text>
<text text-anchor="start" x="550.73" y="-515.7" font-family="Helvetica,sans-Serif" font-style="oblique" font-size="10.00">INT</text>
<polygon fill="none" stroke="black" points="482.36,-487 482.36,-509 621.36,-509 621.36,-487 482.36,-487"/>
<text text-anchor="start" x="517.36" y="-493.7" font-family="Times,serif" font-size="14.00">group_id:</text>
<text text-anchor="start" x="569.86" y="-493.7" font-family="Helvetica,sans-Serif" font-style="oblique" font-size="10.00">INT</text>
<polygon fill="none" stroke="black" points="482.36,-465 482.36,-487 621.36,-487 621.36,-465 482.36,-465"/>
<text text-anchor="start" x="503.11" y="-471.7" font-family="Times,serif" font-size="14.00">permission_id:</text>
<text text-anchor="start" x="584.11" y="-471.7" font-family="Helvetica,sans-Serif" font-style="oblique" font-size="10.00">INT</text>
</g>
<!-- auth_group_permissions&#45;&gt;auth_group -->
<g id="edge2" class="edge">
<title>auth_group_permissions:group_id&#45;&gt;auth_group:id</title>
<path fill="none" stroke="#444444" stroke-dasharray="5,2" d="M622.86,-498C1245.72,-498 1403.94,-498 2021.81,-498"/>
<polygon fill="#444444" stroke="#444444" points="2031.36,-501.5 2021.36,-498 2031.36,-494.5 2031.36,-501.5"/>
</g>
<!-- auth_permission -->
<g id="node3" class="node">
<title>auth_permission</title>
<polygon fill="#dddddd" stroke="none" points="2019.86,-417 2019.86,-439 2133.86,-439 2133.86,-417 2019.86,-417"/>
<polygon fill="none" stroke="black" points="2019.86,-417 2019.86,-439 2133.86,-439 2133.86,-417 2019.86,-417"/>
<text text-anchor="start" x="2031.86" y="-422.7" font-family="Times,serif" font-size="14.00">auth_permission</text>
<polygon fill="none" stroke="black" points="2019.86,-395 2019.86,-417 2133.86,-417 2133.86,-395 2019.86,-395"/>
<text text-anchor="start" x="2061.48" y="-401.7" font-family="Times,serif" font-size="14.00">id:</text>
<text text-anchor="start" x="2075.73" y="-401.7" font-family="Helvetica,sans-Serif" font-style="oblique" font-size="10.00">INT</text>
<polygon fill="none" stroke="black" points="2019.86,-373 2019.86,-395 2133.86,-395 2133.86,-373 2019.86,-373"/>
<text text-anchor="start" x="2035.61" y="-379.7" font-family="Times,serif" font-size="14.00">name:</text>
<text text-anchor="start" x="2069.36" y="-379.7" font-family="Helvetica,sans-Serif" font-style="oblique" font-size="10.00">VARCHAR</text>
<polygon fill="none" stroke="black" points="2019.86,-351 2019.86,-373 2133.86,-373 2133.86,-351 2019.86,-351"/>
<text text-anchor="start" x="2023.23" y="-357.7" font-family="Times,serif" font-size="14.00">content_type_id:</text>
<text text-anchor="start" x="2113.98" y="-357.7" font-family="Helvetica,sans-Serif" font-style="oblique" font-size="10.00">INT</text>
<polygon fill="none" stroke="black" points="2019.86,-329 2019.86,-351 2133.86,-351 2133.86,-329 2019.86,-329"/>
<text text-anchor="start" x="2022.86" y="-335.7" font-family="Times,serif" font-size="14.00">codename:</text>
<text text-anchor="start" x="2082.11" y="-335.7" font-family="Helvetica,sans-Serif" font-style="oblique" font-size="10.00">VARCHAR</text>
</g>
<!-- auth_group_permissions&#45;&gt;auth_permission -->
<g id="edge1" class="edge">
<title>auth_group_permissions:permission_id&#45;&gt;auth_permission:id</title>
<path fill="none" stroke="#444444" stroke-dasharray="5,2" d="M622.86,-476C1240.74,-476 1395.97,-406.75 2008.89,-406.01"/>
<polygon fill="#444444" stroke="#444444" points="2018.36,-409.5 2008.36,-406.01 2018.35,-402.5 2018.36,-409.5"/>
</g>
<!-- django_content_type -->
<g id="node13" class="node">
<title>django_content_type</title>
<polygon fill="#dddddd" stroke="none" points="3401.36,-206 3401.36,-228 3520.36,-228 3520.36,-206 3401.36,-206"/>
<polygon fill="none" stroke="black" points="3401.36,-206 3401.36,-228 3520.36,-228 3520.36,-206 3401.36,-206"/>
<text text-anchor="start" x="3404.23" y="-211.7" font-family="Times,serif" font-size="14.00">django_content_type</text>
<polygon fill="none" stroke="black" points="3401.36,-184 3401.36,-206 3520.36,-206 3520.36,-184 3401.36,-184"/>
<text text-anchor="start" x="3445.48" y="-190.7" font-family="Times,serif" font-size="14.00">id:</text>
<text text-anchor="start" x="3459.73" y="-190.7" font-family="Helvetica,sans-Serif" font-style="oblique" font-size="10.00">INT</text>
<polygon fill="none" stroke="black" points="3401.36,-162 3401.36,-184 3520.36,-184 3520.36,-162 3401.36,-162"/>
<text text-anchor="start" x="3408.36" y="-168.7" font-family="Times,serif" font-size="14.00">app_label:</text>
<text text-anchor="start" x="3464.61" y="-168.7" font-family="Helvetica,sans-Serif" font-style="oblique" font-size="10.00">VARCHAR</text>
<polygon fill="none" stroke="black" points="3401.36,-140 3401.36,-162 3520.36,-162 3520.36,-140 3401.36,-140"/>
<text text-anchor="start" x="3417.36" y="-146.7" font-family="Times,serif" font-size="14.00">model:</text>
<text text-anchor="start" x="3455.61" y="-146.7" font-family="Helvetica,sans-Serif" font-style="oblique" font-size="10.00">VARCHAR</text>
</g>
<!-- auth_permission&#45;&gt;django_content_type -->
<g id="edge3" class="edge">
<title>auth_permission:content_type_id&#45;&gt;django_content_type:id</title>
<path fill="none" stroke="#444444" stroke-dasharray="5,2" d="M2134.86,-362C2698.63,-362 2831.21,-196.95 3389.93,-195.02"/>
<polygon fill="#444444" stroke="#444444" points="3399.36,-198.5 3389.36,-195.02 3399.35,-191.5 3399.36,-198.5"/>
</g>
<!-- cart -->
<g id="node4" class="node">
<title>cart</title>
<polygon fill="#dddddd" stroke="none" points="509.36,-645 509.36,-667 594.36,-667 594.36,-645 509.36,-645"/>
<polygon fill="none" stroke="black" points="509.36,-645 509.36,-667 594.36,-667 594.36,-645 509.36,-645"/>
<text text-anchor="start" x="541.73" y="-650.7" font-family="Times,serif" font-size="14.00">cart</text>
<polygon fill="none" stroke="black" points="509.36,-623 509.36,-645 594.36,-645 594.36,-623 509.36,-623"/>
<text text-anchor="start" x="527.86" y="-629.7" font-family="Times,serif" font-size="14.00">id:</text>
<text text-anchor="start" x="542.11" y="-629.7" font-family="Helvetica,sans-Serif" font-style="oblique" font-size="10.00">BIGINT</text>
<polygon fill="none" stroke="black" points="509.36,-601 509.36,-623 594.36,-623 594.36,-601 509.36,-601"/>
<text text-anchor="start" x="513.98" y="-607.7" font-family="Times,serif" font-size="14.00">created_at:</text>
<text text-anchor="start" x="573.23" y="-607.7" font-family="Helvetica,sans-Serif" font-style="oblique" font-size="10.00">INT</text>
<polygon fill="none" stroke="black" points="509.36,-579 509.36,-601 594.36,-601 594.36,-579 509.36,-579"/>
<text text-anchor="start" x="512.11" y="-585.7" font-family="Times,serif" font-size="14.00">updated_at:</text>
<text text-anchor="start" x="575.11" y="-585.7" font-family="Helvetica,sans-Serif" font-style="oblique" font-size="10.00">INT</text>
</g>
<!-- cart_price_map -->
<g id="node5" class="node">
<title>cart_price_map</title>
<polygon fill="#dddddd" stroke="none" points="484.36,-825 484.36,-847 619.36,-847 619.36,-825 484.36,-825"/>
<polygon fill="none" stroke="black" points="484.36,-825 484.36,-847 619.36,-847 619.36,-825 484.36,-825"/>
<text text-anchor="start" x="509.48" y="-830.7" font-family="Times,serif" font-size="14.00">cart_price_map</text>
<polygon fill="none" stroke="black" points="484.36,-803 484.36,-825 619.36,-825 619.36,-803 484.36,-803"/>
<text text-anchor="start" x="527.86" y="-809.7" font-family="Times,serif" font-size="14.00">id:</text>
<text text-anchor="start" x="542.11" y="-809.7" font-family="Helvetica,sans-Serif" font-style="oblique" font-size="10.00">BIGINT</text>
<polygon fill="none" stroke="black" points="484.36,-781 484.36,-803 619.36,-803 619.36,-781 484.36,-781"/>
<text text-anchor="start" x="514.36" y="-787.7" font-family="Times,serif" font-size="14.00">cart_id:</text>
<text text-anchor="start" x="555.61" y="-787.7" font-family="Helvetica,sans-Serif" font-style="oblique" font-size="10.00">BIGINT</text>
<polygon fill="none" stroke="black" points="484.36,-759 484.36,-781 619.36,-781 619.36,-759 484.36,-759"/>
<text text-anchor="start" x="498.61" y="-765.7" font-family="Times,serif" font-size="14.00">total_price:</text>
<text text-anchor="start" x="560.11" y="-765.7" font-family="Helvetica,sans-Serif" font-style="oblique" font-size="10.00">DECIMAL</text>
<polygon fill="none" stroke="black" points="484.36,-737 484.36,-759 619.36,-759 619.36,-737 484.36,-737"/>
<text text-anchor="start" x="486.98" y="-743.7" font-family="Times,serif" font-size="14.00">net_total_price:</text>
<text text-anchor="start" x="571.73" y="-743.7" font-family="Helvetica,sans-Serif" font-style="oblique" font-size="10.00">DECIMAL</text>
<polygon fill="none" stroke="black" points="484.36,-715 484.36,-737 619.36,-737 619.36,-715 484.36,-715"/>
<text text-anchor="start" x="495.98" y="-721.7" font-family="Times,serif" font-size="14.00">vat_percent:</text>
<text text-anchor="start" x="562.73" y="-721.7" font-family="Helvetica,sans-Serif" font-style="oblique" font-size="10.00">DECIMAL</text>
<polygon fill="none" stroke="black" points="484.36,-693 484.36,-715 619.36,-715 619.36,-693 484.36,-693"/>
<text text-anchor="start" x="490.73" y="-699.7" font-family="Times,serif" font-size="14.00">vat_tax_price:</text>
<text text-anchor="start" x="567.98" y="-699.7" font-family="Helvetica,sans-Serif" font-style="oblique" font-size="10.00">DECIMAL</text>
</g>
<!-- cart_product_map -->
<g id="node6" class="node">
<title>cart_product_map</title>
<polygon fill="#dddddd" stroke="none" points="499.36,-983 499.36,-1005 604.36,-1005 604.36,-983 499.36,-983"/>
<polygon fill="none" stroke="black" points="499.36,-983 499.36,-1005 604.36,-1005 604.36,-983 499.36,-983"/>
<text text-anchor="start" x="502.36" y="-988.7" font-family="Times,serif" font-size="14.00">cart_product_map</text>
<polygon fill="none" stroke="black" points="499.36,-961 499.36,-983 604.36,-983 604.36,-961 499.36,-961"/>
<text text-anchor="start" x="527.86" y="-967.7" font-family="Times,serif" font-size="14.00">id:</text>
<text text-anchor="start" x="542.11" y="-967.7" font-family="Helvetica,sans-Serif" font-style="oblique" font-size="10.00">BIGINT</text>
<polygon fill="none" stroke="black" points="499.36,-939 499.36,-961 604.36,-961 604.36,-939 499.36,-939"/>
<text text-anchor="start" x="522.98" y="-945.7" font-family="Times,serif" font-size="14.00">cart_id:</text>
<text text-anchor="start" x="564.23" y="-945.7" font-family="Helvetica,sans-Serif" font-style="oblique" font-size="10.00">INT</text>
<polygon fill="none" stroke="black" points="499.36,-917 499.36,-939 604.36,-939 604.36,-917 499.36,-917"/>
<text text-anchor="start" x="512.48" y="-923.7" font-family="Times,serif" font-size="14.00">product_id:</text>
<text text-anchor="start" x="574.73" y="-923.7" font-family="Helvetica,sans-Serif" font-style="oblique" font-size="10.00">INT</text>
<polygon fill="none" stroke="black" points="499.36,-895 499.36,-917 604.36,-917 604.36,-895 499.36,-895"/>
<text text-anchor="start" x="519.61" y="-901.7" font-family="Times,serif" font-size="14.00">quantity:</text>
<text text-anchor="start" x="567.61" y="-901.7" font-family="Helvetica,sans-Serif" font-style="oblique" font-size="10.00">INT</text>
<polygon fill="none" stroke="black" points="499.36,-873 499.36,-895 604.36,-895 604.36,-873 499.36,-873"/>
<text text-anchor="start" x="509.86" y="-879.7" font-family="Times,serif" font-size="14.00">category_id:</text>
<text text-anchor="start" x="577.36" y="-879.7" font-family="Helvetica,sans-Serif" font-style="oblique" font-size="10.00">INT</text>
</g>
<!-- cart_user_map -->
<g id="node7" class="node">
<title>cart_user_map</title>
<polygon fill="#dddddd" stroke="none" points="499.36,-1119 499.36,-1141 604.36,-1141 604.36,-1119 499.36,-1119"/>
<polygon fill="none" stroke="black" points="499.36,-1119 499.36,-1141 604.36,-1141 604.36,-1119 499.36,-1119"/>
<text text-anchor="start" x="511.73" y="-1124.7" font-family="Times,serif" font-size="14.00">cart_user_map</text>
<polygon fill="none" stroke="black" points="499.36,-1097 499.36,-1119 604.36,-1119 604.36,-1097 499.36,-1097"/>
<text text-anchor="start" x="527.86" y="-1103.7" font-family="Times,serif" font-size="14.00">id:</text>
<text text-anchor="start" x="542.11" y="-1103.7" font-family="Helvetica,sans-Serif" font-style="oblique" font-size="10.00">BIGINT</text>
<polygon fill="none" stroke="black" points="499.36,-1075 499.36,-1097 604.36,-1097 604.36,-1075 499.36,-1075"/>
<text text-anchor="start" x="514.36" y="-1081.7" font-family="Times,serif" font-size="14.00">cart_id:</text>
<text text-anchor="start" x="555.61" y="-1081.7" font-family="Helvetica,sans-Serif" font-style="oblique" font-size="10.00">BIGINT</text>
<polygon fill="none" stroke="black" points="499.36,-1053 499.36,-1075 604.36,-1075 604.36,-1053 499.36,-1053"/>
<text text-anchor="start" x="513.23" y="-1059.7" font-family="Times,serif" font-size="14.00">user_id:</text>
<text text-anchor="start" x="556.73" y="-1059.7" font-family="Helvetica,sans-Serif" font-style="oblique" font-size="10.00">BIGINT</text>
<polygon fill="none" stroke="black" points="499.36,-1031 499.36,-1053 604.36,-1053 604.36,-1031 499.36,-1031"/>
<text text-anchor="start" x="501.98" y="-1037.7" font-family="Times,serif" font-size="14.00">platform:</text>
<text text-anchor="start" x="552.98" y="-1037.7" font-family="Helvetica,sans-Serif" font-style="oblique" font-size="10.00">VARCHAR</text>
</g>
<!-- category -->
<g id="node8" class="node">
<title>category</title>
<polygon fill="#dddddd" stroke="none" points="507.86,-1211 507.86,-1233 595.86,-1233 595.86,-1211 507.86,-1211"/>
<polygon fill="none" stroke="black" points="507.86,-1211 507.86,-1233 595.86,-1233 595.86,-1211 507.86,-1211"/>
<text text-anchor="start" x="528.61" y="-1216.7" font-family="Times,serif" font-size="14.00">category</text>
<polygon fill="none" stroke="black" points="507.86,-1189 507.86,-1211 595.86,-1211 595.86,-1189 507.86,-1189"/>
<text text-anchor="start" x="527.86" y="-1195.7" font-family="Times,serif" font-size="14.00">id:</text>
<text text-anchor="start" x="542.11" y="-1195.7" font-family="Helvetica,sans-Serif" font-style="oblique" font-size="10.00">BIGINT</text>
<polygon fill="none" stroke="black" points="507.86,-1167 507.86,-1189 595.86,-1189 595.86,-1167 507.86,-1167"/>
<text text-anchor="start" x="510.61" y="-1173.7" font-family="Times,serif" font-size="14.00">name:</text>
<text text-anchor="start" x="544.36" y="-1173.7" font-family="Helvetica,sans-Serif" font-style="oblique" font-size="10.00">VARCHAR</text>
</g>
<!-- core_user -->
<g id="node9" class="node">
<title>core_user</title>
<polygon fill="#dddddd" stroke="none" points="2015.36,-281 2015.36,-303 2138.36,-303 2138.36,-281 2015.36,-281"/>
<polygon fill="none" stroke="black" points="2015.36,-281 2015.36,-303 2138.36,-303 2138.36,-281 2015.36,-281"/>
<text text-anchor="start" x="2050.61" y="-286.7" font-family="Times,serif" font-size="14.00">core_user</text>
<polygon fill="none" stroke="black" points="2015.36,-259 2015.36,-281 2138.36,-281 2138.36,-259 2015.36,-259"/>
<text text-anchor="start" x="2052.86" y="-265.7" font-family="Times,serif" font-size="14.00">id:</text>
<text text-anchor="start" x="2067.11" y="-265.7" font-family="Helvetica,sans-Serif" font-style="oblique" font-size="10.00">BIGINT</text>
<polygon fill="none" stroke="black" points="2015.36,-237 2015.36,-259 2138.36,-259 2138.36,-237 2015.36,-237"/>
<text text-anchor="start" x="2021.36" y="-243.7" font-family="Times,serif" font-size="14.00">is_superuser:</text>
<text text-anchor="start" x="2092.61" y="-243.7" font-family="Helvetica,sans-Serif" font-style="oblique" font-size="10.00">TINYINT</text>
<polygon fill="none" stroke="black" points="2015.36,-215 2015.36,-237 2138.36,-237 2138.36,-215 2015.36,-215"/>
<text text-anchor="start" x="2025.11" y="-221.7" font-family="Times,serif" font-size="14.00">password:</text>
<text text-anchor="start" x="2079.86" y="-221.7" font-family="Helvetica,sans-Serif" font-style="oblique" font-size="10.00">VARCHAR</text>
<polygon fill="none" stroke="black" points="2015.36,-193 2015.36,-215 2138.36,-215 2138.36,-193 2015.36,-193"/>
<text text-anchor="start" x="2024.36" y="-199.7" font-family="Times,serif" font-size="14.00">username:</text>
<text text-anchor="start" x="2080.61" y="-199.7" font-family="Helvetica,sans-Serif" font-style="oblique" font-size="10.00">VARCHAR</text>
<polygon fill="none" stroke="black" points="2015.36,-171 2015.36,-193 2138.36,-193 2138.36,-171 2015.36,-171"/>
<text text-anchor="start" x="2035.61" y="-177.7" font-family="Times,serif" font-size="14.00">name:</text>
<text text-anchor="start" x="2069.36" y="-177.7" font-family="Helvetica,sans-Serif" font-style="oblique" font-size="10.00">VARCHAR</text>
<polygon fill="none" stroke="black" points="2015.36,-149 2015.36,-171 2138.36,-171 2138.36,-149 2015.36,-149"/>
<text text-anchor="start" x="2035.23" y="-155.7" font-family="Times,serif" font-size="14.00">email:</text>
<text text-anchor="start" x="2069.73" y="-155.7" font-family="Helvetica,sans-Serif" font-style="oblique" font-size="10.00">VARCHAR</text>
<polygon fill="none" stroke="black" points="2015.36,-127 2015.36,-149 2138.36,-149 2138.36,-127 2015.36,-127"/>
<text text-anchor="start" x="2046.86" y="-133.7" font-family="Times,serif" font-size="14.00">is_staff:</text>
<text text-anchor="start" x="2090.36" y="-133.7" font-family="Helvetica,sans-Serif" font-style="oblique" font-size="10.00">INT</text>
<polygon fill="none" stroke="black" points="2015.36,-105 2015.36,-127 2138.36,-127 2138.36,-105 2015.36,-105"/>
<text text-anchor="start" x="2042.73" y="-111.7" font-family="Times,serif" font-size="14.00">is_active:</text>
<text text-anchor="start" x="2094.48" y="-111.7" font-family="Helvetica,sans-Serif" font-style="oblique" font-size="10.00">INT</text>
<polygon fill="none" stroke="black" points="2015.36,-83 2015.36,-105 2138.36,-105 2138.36,-83 2015.36,-83"/>
<text text-anchor="start" x="2018.36" y="-89.7" font-family="Times,serif" font-size="14.00">date_joined:</text>
<text text-anchor="start" x="2085.11" y="-89.7" font-family="Helvetica,sans-Serif" font-style="oblique" font-size="10.00">DATETIME</text>
<polygon fill="none" stroke="black" points="2015.36,-61 2015.36,-83 2138.36,-83 2138.36,-61 2015.36,-61"/>
<text text-anchor="start" x="2023.23" y="-67.7" font-family="Times,serif" font-size="14.00">last_login:</text>
<text text-anchor="start" x="2080.23" y="-67.7" font-family="Helvetica,sans-Serif" font-style="oblique" font-size="10.00">DATETIME</text>
</g>
<!-- core_user_groups -->
<g id="node10" class="node">
<title>core_user_groups</title>
<polygon fill="#dddddd" stroke="none" points="500.86,-417 500.86,-439 602.86,-439 602.86,-417 500.86,-417"/>
<polygon fill="none" stroke="black" points="500.86,-417 500.86,-439 602.86,-439 602.86,-417 500.86,-417"/>
<text text-anchor="start" x="503.86" y="-422.7" font-family="Times,serif" font-size="14.00">core_user_groups</text>
<polygon fill="none" stroke="black" points="500.86,-395 500.86,-417 602.86,-417 602.86,-395 500.86,-395"/>
<text text-anchor="start" x="536.48" y="-401.7" font-family="Times,serif" font-size="14.00">id:</text>
<text text-anchor="start" x="550.73" y="-401.7" font-family="Helvetica,sans-Serif" font-style="oblique" font-size="10.00">INT</text>
<polygon fill="none" stroke="black" points="500.86,-373 500.86,-395 602.86,-395 602.86,-373 500.86,-373"/>
<text text-anchor="start" x="513.23" y="-379.7" font-family="Times,serif" font-size="14.00">user_id:</text>
<text text-anchor="start" x="556.73" y="-379.7" font-family="Helvetica,sans-Serif" font-style="oblique" font-size="10.00">BIGINT</text>
<polygon fill="none" stroke="black" points="500.86,-351 500.86,-373 602.86,-373 602.86,-351 500.86,-351"/>
<text text-anchor="start" x="517.36" y="-357.7" font-family="Times,serif" font-size="14.00">group_id:</text>
<text text-anchor="start" x="569.86" y="-357.7" font-family="Helvetica,sans-Serif" font-style="oblique" font-size="10.00">INT</text>
</g>
<!-- core_user_groups&#45;&gt;auth_group -->
<g id="edge4" class="edge">
<title>core_user_groups:group_id&#45;&gt;auth_group:id</title>
<path fill="none" stroke="#444444" stroke-dasharray="5,2" d="M603.86,-362C1238.13,-362 1392.74,-496.61 2022.09,-497.99"/>
<polygon fill="#444444" stroke="#444444" points="2031.35,-501.5 2021.36,-497.99 2031.36,-494.5 2031.35,-501.5"/>
</g>
<!-- core_user_groups&#45;&gt;core_user -->
<g id="edge5" class="edge">
<title>core_user_groups:user_id&#45;&gt;core_user:id</title>
<path fill="none" stroke="#444444" stroke-dasharray="5,2" d="M603.86,-384C1229.35,-384 1383.57,-271.17 2004.22,-270.01"/>
<polygon fill="#444444" stroke="#444444" points="2013.36,-273.5 2003.36,-270.01 2013.35,-266.5 2013.36,-273.5"/>
</g>
<!-- core_user_user_permissions -->
<g id="node11" class="node">
<title>core_user_user_permissions</title>
<polygon fill="#dddddd" stroke="none" points="472.36,-303 472.36,-325 631.36,-325 631.36,-303 472.36,-303"/>
<polygon fill="none" stroke="black" points="472.36,-303 472.36,-325 631.36,-325 631.36,-303 472.36,-303"/>
<text text-anchor="start" x="474.98" y="-308.7" font-family="Times,serif" font-size="14.00">core_user_user_permissions</text>
<polygon fill="none" stroke="black" points="472.36,-281 472.36,-303 631.36,-303 631.36,-281 472.36,-281"/>
<text text-anchor="start" x="536.48" y="-287.7" font-family="Times,serif" font-size="14.00">id:</text>
<text text-anchor="start" x="550.73" y="-287.7" font-family="Helvetica,sans-Serif" font-style="oblique" font-size="10.00">INT</text>
<polygon fill="none" stroke="black" points="472.36,-259 472.36,-281 631.36,-281 631.36,-259 472.36,-259"/>
<text text-anchor="start" x="513.23" y="-265.7" font-family="Times,serif" font-size="14.00">user_id:</text>
<text text-anchor="start" x="556.73" y="-265.7" font-family="Helvetica,sans-Serif" font-style="oblique" font-size="10.00">BIGINT</text>
<polygon fill="none" stroke="black" points="472.36,-237 472.36,-259 631.36,-259 631.36,-237 472.36,-237"/>
<text text-anchor="start" x="503.11" y="-243.7" font-family="Times,serif" font-size="14.00">permission_id:</text>
<text text-anchor="start" x="584.11" y="-243.7" font-family="Helvetica,sans-Serif" font-style="oblique" font-size="10.00">INT</text>
</g>
<!-- core_user_user_permissions&#45;&gt;auth_permission -->
<g id="edge6" class="edge">
<title>core_user_user_permissions:permission_id&#45;&gt;auth_permission:id</title>
<path fill="none" stroke="#444444" stroke-dasharray="5,2" d="M632.86,-248C1249.52,-248 1397.29,-404.31 2008.91,-405.99"/>
<polygon fill="#444444" stroke="#444444" points="2018.35,-409.5 2008.36,-405.99 2018.36,-402.5 2018.35,-409.5"/>
</g>
<!-- core_user_user_permissions&#45;&gt;core_user -->
<g id="edge7" class="edge">
<title>core_user_user_permissions:user_id&#45;&gt;core_user:id</title>
<path fill="none" stroke="#444444" stroke-dasharray="5,2" d="M632.86,-270C1243.34,-270 1398.42,-270 2004.01,-270"/>
<polygon fill="#444444" stroke="#444444" points="2013.36,-273.5 2003.36,-270 2013.36,-266.5 2013.36,-273.5"/>
</g>
<!-- django_admin_log -->
<g id="node12" class="node">
<title>django_admin_log</title>
<polygon fill="#dddddd" stroke="none" points="474.86,-180 474.86,-202 628.86,-202 628.86,-180 474.86,-180"/>
<polygon fill="none" stroke="black" points="474.86,-180 474.86,-202 628.86,-202 628.86,-180 474.86,-180"/>
<text text-anchor="start" x="500.86" y="-185.7" font-family="Times,serif" font-size="14.00">django_admin_log</text>
<polygon fill="none" stroke="black" points="474.86,-158 474.86,-180 628.86,-180 628.86,-158 474.86,-158"/>
<text text-anchor="start" x="536.48" y="-164.7" font-family="Times,serif" font-size="14.00">id:</text>
<text text-anchor="start" x="550.73" y="-164.7" font-family="Helvetica,sans-Serif" font-style="oblique" font-size="10.00">INT</text>
<polygon fill="none" stroke="black" points="474.86,-136 474.86,-158 628.86,-158 628.86,-136 474.86,-136"/>
<text text-anchor="start" x="492.61" y="-142.7" font-family="Times,serif" font-size="14.00">action_time:</text>
<text text-anchor="start" x="560.86" y="-142.7" font-family="Helvetica,sans-Serif" font-style="oblique" font-size="10.00">DATETIME</text>
<polygon fill="none" stroke="black" points="474.86,-114 474.86,-136 628.86,-136 628.86,-114 474.86,-114"/>
<text text-anchor="start" x="498.23" y="-120.7" font-family="Times,serif" font-size="14.00">object_id:</text>
<text text-anchor="start" x="552.23" y="-120.7" font-family="Helvetica,sans-Serif" font-style="oblique" font-size="10.00">LONGTEXT</text>
<polygon fill="none" stroke="black" points="474.86,-92 474.86,-114 628.86,-114 628.86,-92 474.86,-92"/>
<text text-anchor="start" x="494.86" y="-98.7" font-family="Times,serif" font-size="14.00">object_repr:</text>
<text text-anchor="start" x="560.11" y="-98.7" font-family="Helvetica,sans-Serif" font-style="oblique" font-size="10.00">VARCHAR</text>
<polygon fill="none" stroke="black" points="474.86,-70 474.86,-92 628.86,-92 628.86,-70 474.86,-70"/>
<text text-anchor="start" x="495.23" y="-76.7" font-family="Times,serif" font-size="14.00">action_flag:</text>
<text text-anchor="start" x="559.73" y="-76.7" font-family="Helvetica,sans-Serif" font-style="oblique" font-size="10.00">SMALLINT</text>
<polygon fill="none" stroke="black" points="474.86,-48 474.86,-70 628.86,-70 628.86,-48 474.86,-48"/>
<text text-anchor="start" x="477.61" y="-54.7" font-family="Times,serif" font-size="14.00">change_message:</text>
<text text-anchor="start" x="572.86" y="-54.7" font-family="Helvetica,sans-Serif" font-style="oblique" font-size="10.00">LONGTEXT</text>
<polygon fill="none" stroke="black" points="474.86,-26 474.86,-48 628.86,-48 628.86,-26 474.86,-26"/>
<text text-anchor="start" x="498.23" y="-32.7" font-family="Times,serif" font-size="14.00">content_type_id:</text>
<text text-anchor="start" x="588.98" y="-32.7" font-family="Helvetica,sans-Serif" font-style="oblique" font-size="10.00">INT</text>
<polygon fill="none" stroke="black" points="474.86,-4 474.86,-26 628.86,-26 628.86,-4 474.86,-4"/>
<text text-anchor="start" x="513.23" y="-10.7" font-family="Times,serif" font-size="14.00">user_id:</text>
<text text-anchor="start" x="556.73" y="-10.7" font-family="Helvetica,sans-Serif" font-style="oblique" font-size="10.00">BIGINT</text>
</g>
<!-- django_admin_log&#45;&gt;core_user -->
<g id="edge9" class="edge">
<title>django_admin_log:user_id&#45;&gt;core_user:id</title>
<path fill="none" stroke="#444444" stroke-dasharray="5,2" d="M629.86,-15C1251.96,-15 1386.95,-267.27 2003.82,-269.98"/>
<polygon fill="#444444" stroke="#444444" points="2013.35,-273.5 2003.36,-269.98 2013.36,-266.5 2013.35,-273.5"/>
</g>
<!-- django_admin_log&#45;&gt;django_content_type -->
<g id="edge8" class="edge">
<title>django_admin_log:content_type_id&#45;&gt;django_content_type:id</title>
<path fill="none" stroke="#444444" stroke-dasharray="5,2" d="M629.86,-37C1303.87,-37 1473.63,-6.24 2146.36,-48 2702.93,-82.55 2837.36,-193.69 3390.04,-194.99"/>
<polygon fill="#444444" stroke="#444444" points="3399.35,-198.5 3389.36,-194.99 3399.36,-191.5 3399.35,-198.5"/>
</g>
<!-- django_migrations -->
<g id="node14" class="node">
<title>django_migrations</title>
<polygon fill="#dddddd" stroke="none" points="497.86,-1347 497.86,-1369 605.86,-1369 605.86,-1347 497.86,-1347"/>
<polygon fill="none" stroke="black" points="497.86,-1347 497.86,-1369 605.86,-1369 605.86,-1347 497.86,-1347"/>
<text text-anchor="start" x="500.86" y="-1352.7" font-family="Times,serif" font-size="14.00">django_migrations</text>
<polygon fill="none" stroke="black" points="497.86,-1325 497.86,-1347 605.86,-1347 605.86,-1325 497.86,-1325"/>
<text text-anchor="start" x="536.48" y="-1331.7" font-family="Times,serif" font-size="14.00">id:</text>
<text text-anchor="start" x="550.73" y="-1331.7" font-family="Helvetica,sans-Serif" font-style="oblique" font-size="10.00">INT</text>
<polygon fill="none" stroke="black" points="497.86,-1303 497.86,-1325 605.86,-1325 605.86,-1303 497.86,-1303"/>
<text text-anchor="start" x="515.86" y="-1309.7" font-family="Times,serif" font-size="14.00">app:</text>
<text text-anchor="start" x="539.11" y="-1309.7" font-family="Helvetica,sans-Serif" font-style="oblique" font-size="10.00">VARCHAR</text>
<polygon fill="none" stroke="black" points="497.86,-1281 497.86,-1303 605.86,-1303 605.86,-1281 497.86,-1281"/>
<text text-anchor="start" x="510.61" y="-1287.7" font-family="Times,serif" font-size="14.00">name:</text>
<text text-anchor="start" x="544.36" y="-1287.7" font-family="Helvetica,sans-Serif" font-style="oblique" font-size="10.00">VARCHAR</text>
<polygon fill="none" stroke="black" points="497.86,-1259 497.86,-1281 605.86,-1281 605.86,-1259 497.86,-1259"/>
<text text-anchor="start" x="504.98" y="-1265.7" font-family="Times,serif" font-size="14.00">applied:</text>
<text text-anchor="start" x="548.48" y="-1265.7" font-family="Helvetica,sans-Serif" font-style="oblique" font-size="10.00">DATETIME</text>
</g>
<!-- django_session -->
<g id="node15" class="node">
<title>django_session</title>
<polygon fill="#dddddd" stroke="none" points="486.36,-1461 486.36,-1483 617.36,-1483 617.36,-1461 486.36,-1461"/>
<polygon fill="none" stroke="black" points="486.36,-1461 486.36,-1483 617.36,-1483 617.36,-1461 486.36,-1461"/>
<text text-anchor="start" x="510.61" y="-1466.7" font-family="Times,serif" font-size="14.00">django_session</text>
<polygon fill="none" stroke="black" points="486.36,-1439 486.36,-1461 617.36,-1461 617.36,-1439 486.36,-1439"/>
<text text-anchor="start" x="492.98" y="-1445.7" font-family="Times,serif" font-size="14.00">session_key:</text>
<text text-anchor="start" x="561.98" y="-1445.7" font-family="Helvetica,sans-Serif" font-style="oblique" font-size="10.00">VARCHAR</text>
<polygon fill="none" stroke="black" points="486.36,-1417 486.36,-1439 617.36,-1439 617.36,-1417 486.36,-1417"/>
<text text-anchor="start" x="489.23" y="-1423.7" font-family="Times,serif" font-size="14.00">session_data:</text>
<text text-anchor="start" x="561.23" y="-1423.7" font-family="Helvetica,sans-Serif" font-style="oblique" font-size="10.00">LONGTEXT</text>
<polygon fill="none" stroke="black" points="486.36,-1395 486.36,-1417 617.36,-1417 617.36,-1395 486.36,-1395"/>
<text text-anchor="start" x="493.36" y="-1401.7" font-family="Times,serif" font-size="14.00">expire_date:</text>
<text text-anchor="start" x="560.11" y="-1401.7" font-family="Helvetica,sans-Serif" font-style="oblique" font-size="10.00">DATETIME</text>
</g>
<!-- order_product_map -->
<g id="node16" class="node">
<title>order_product_map</title>
<polygon fill="#dddddd" stroke="none" points="495.36,-1597 495.36,-1619 608.36,-1619 608.36,-1597 495.36,-1597"/>
<polygon fill="none" stroke="black" points="495.36,-1597 495.36,-1619 608.36,-1619 608.36,-1597 495.36,-1597"/>
<text text-anchor="start" x="498.23" y="-1602.7" font-family="Times,serif" font-size="14.00">order_product_map</text>
<polygon fill="none" stroke="black" points="495.36,-1575 495.36,-1597 608.36,-1597 608.36,-1575 495.36,-1575"/>
<text text-anchor="start" x="527.86" y="-1581.7" font-family="Times,serif" font-size="14.00">id:</text>
<text text-anchor="start" x="542.11" y="-1581.7" font-family="Helvetica,sans-Serif" font-style="oblique" font-size="10.00">BIGINT</text>
<polygon fill="none" stroke="black" points="495.36,-1553 495.36,-1575 608.36,-1575 608.36,-1553 495.36,-1553"/>
<text text-anchor="start" x="503.86" y="-1559.7" font-family="Times,serif" font-size="14.00">product_id:</text>
<text text-anchor="start" x="566.11" y="-1559.7" font-family="Helvetica,sans-Serif" font-style="oblique" font-size="10.00">BIGINT</text>
<polygon fill="none" stroke="black" points="495.36,-1531 495.36,-1553 608.36,-1553 608.36,-1531 495.36,-1531"/>
<text text-anchor="start" x="510.23" y="-1537.7" font-family="Times,serif" font-size="14.00">order_id:</text>
<text text-anchor="start" x="559.73" y="-1537.7" font-family="Helvetica,sans-Serif" font-style="oblique" font-size="10.00">BIGINT</text>
<polygon fill="none" stroke="black" points="495.36,-1509 495.36,-1531 608.36,-1531 608.36,-1509 495.36,-1509"/>
<text text-anchor="start" x="519.61" y="-1515.7" font-family="Times,serif" font-size="14.00">quantity:</text>
<text text-anchor="start" x="567.61" y="-1515.7" font-family="Helvetica,sans-Serif" font-style="oblique" font-size="10.00">INT</text>
</g>
<!-- order_status -->
<g id="node17" class="node">
<title>order_status</title>
<polygon fill="#dddddd" stroke="none" points="507.36,-1755 507.36,-1777 596.36,-1777 596.36,-1755 507.36,-1755"/>
<polygon fill="none" stroke="black" points="507.36,-1755 507.36,-1777 596.36,-1777 596.36,-1755 507.36,-1755"/>
<text text-anchor="start" x="518.86" y="-1760.7" font-family="Times,serif" font-size="14.00">order_status</text>
<polygon fill="none" stroke="black" points="507.36,-1733 507.36,-1755 596.36,-1755 596.36,-1733 507.36,-1733"/>
<text text-anchor="start" x="527.86" y="-1739.7" font-family="Times,serif" font-size="14.00">id:</text>
<text text-anchor="start" x="542.11" y="-1739.7" font-family="Helvetica,sans-Serif" font-style="oblique" font-size="10.00">BIGINT</text>
<polygon fill="none" stroke="black" points="507.36,-1711 507.36,-1733 596.36,-1733 596.36,-1711 507.36,-1711"/>
<text text-anchor="start" x="510.23" y="-1717.7" font-family="Times,serif" font-size="14.00">order_id:</text>
<text text-anchor="start" x="559.73" y="-1717.7" font-family="Helvetica,sans-Serif" font-style="oblique" font-size="10.00">BIGINT</text>
<polygon fill="none" stroke="black" points="507.36,-1689 507.36,-1711 596.36,-1711 596.36,-1689 507.36,-1689"/>
<text text-anchor="start" x="519.61" y="-1695.7" font-family="Times,serif" font-size="14.00">status:</text>
<text text-anchor="start" x="554.11" y="-1695.7" font-family="Helvetica,sans-Serif" font-style="oblique" font-size="10.00">ENUM</text>
<polygon fill="none" stroke="black" points="507.36,-1667 507.36,-1689 596.36,-1689 596.36,-1667 507.36,-1667"/>
<text text-anchor="start" x="513.98" y="-1673.7" font-family="Times,serif" font-size="14.00">created_at:</text>
<text text-anchor="start" x="573.23" y="-1673.7" font-family="Helvetica,sans-Serif" font-style="oblique" font-size="10.00">INT</text>
<polygon fill="none" stroke="black" points="507.36,-1645 507.36,-1667 596.36,-1667 596.36,-1645 507.36,-1645"/>
<text text-anchor="start" x="512.11" y="-1651.7" font-family="Times,serif" font-size="14.00">updated_at:</text>
<text text-anchor="start" x="575.11" y="-1651.7" font-family="Helvetica,sans-Serif" font-style="oblique" font-size="10.00">INT</text>
</g>
<!-- order_table -->
<g id="node18" class="node">
<title>order_table</title>
<polygon fill="#dddddd" stroke="none" points="484.36,-2001 484.36,-2023 619.36,-2023 619.36,-2001 484.36,-2001"/>
<polygon fill="none" stroke="black" points="484.36,-2001 484.36,-2023 619.36,-2023 619.36,-2001 484.36,-2001"/>
<text text-anchor="start" x="521.11" y="-2006.7" font-family="Times,serif" font-size="14.00">order_table</text>
<polygon fill="none" stroke="black" points="484.36,-1979 484.36,-2001 619.36,-2001 619.36,-1979 484.36,-1979"/>
<text text-anchor="start" x="527.86" y="-1985.7" font-family="Times,serif" font-size="14.00">id:</text>
<text text-anchor="start" x="542.11" y="-1985.7" font-family="Helvetica,sans-Serif" font-style="oblique" font-size="10.00">BIGINT</text>
<polygon fill="none" stroke="black" points="484.36,-1957 484.36,-1979 619.36,-1979 619.36,-1957 484.36,-1957"/>
<text text-anchor="start" x="514.36" y="-1963.7" font-family="Times,serif" font-size="14.00">cart_id:</text>
<text text-anchor="start" x="555.61" y="-1963.7" font-family="Helvetica,sans-Serif" font-style="oblique" font-size="10.00">BIGINT</text>
<polygon fill="none" stroke="black" points="484.36,-1935 484.36,-1957 619.36,-1957 619.36,-1935 484.36,-1935"/>
<text text-anchor="start" x="498.61" y="-1941.7" font-family="Times,serif" font-size="14.00">total_price:</text>
<text text-anchor="start" x="560.11" y="-1941.7" font-family="Helvetica,sans-Serif" font-style="oblique" font-size="10.00">DECIMAL</text>
<polygon fill="none" stroke="black" points="484.36,-1913 484.36,-1935 619.36,-1935 619.36,-1913 484.36,-1913"/>
<text text-anchor="start" x="486.98" y="-1919.7" font-family="Times,serif" font-size="14.00">net_total_price:</text>
<text text-anchor="start" x="571.73" y="-1919.7" font-family="Helvetica,sans-Serif" font-style="oblique" font-size="10.00">DECIMAL</text>
<polygon fill="none" stroke="black" points="484.36,-1891 484.36,-1913 619.36,-1913 619.36,-1891 484.36,-1891"/>
<text text-anchor="start" x="495.98" y="-1897.7" font-family="Times,serif" font-size="14.00">vat_percent:</text>
<text text-anchor="start" x="562.73" y="-1897.7" font-family="Helvetica,sans-Serif" font-style="oblique" font-size="10.00">DECIMAL</text>
<polygon fill="none" stroke="black" points="484.36,-1869 484.36,-1891 619.36,-1891 619.36,-1869 484.36,-1869"/>
<text text-anchor="start" x="490.73" y="-1875.7" font-family="Times,serif" font-size="14.00">vat_tax_price:</text>
<text text-anchor="start" x="567.98" y="-1875.7" font-family="Helvetica,sans-Serif" font-style="oblique" font-size="10.00">DECIMAL</text>
<polygon fill="none" stroke="black" points="484.36,-1847 484.36,-1869 619.36,-1869 619.36,-1847 484.36,-1847"/>
<text text-anchor="start" x="513.98" y="-1853.7" font-family="Times,serif" font-size="14.00">created_at:</text>
<text text-anchor="start" x="573.23" y="-1853.7" font-family="Helvetica,sans-Serif" font-style="oblique" font-size="10.00">INT</text>
<polygon fill="none" stroke="black" points="484.36,-1825 484.36,-1847 619.36,-1847 619.36,-1825 484.36,-1825"/>
<text text-anchor="start" x="512.11" y="-1831.7" font-family="Times,serif" font-size="14.00">updated_at:</text>
<text text-anchor="start" x="575.11" y="-1831.7" font-family="Helvetica,sans-Serif" font-style="oblique" font-size="10.00">INT</text>
<polygon fill="none" stroke="black" points="484.36,-1803 484.36,-1825 619.36,-1825 619.36,-1803 484.36,-1803"/>
<text text-anchor="start" x="495.61" y="-1809.7" font-family="Times,serif" font-size="14.00">description:</text>
<text text-anchor="start" x="559.36" y="-1809.7" font-family="Helvetica,sans-Serif" font-style="oblique" font-size="10.00">VARCHAR</text>
</g>
<!-- product -->
<g id="node19" class="node">
<title>product</title>
<polygon fill="#dddddd" stroke="none" points="507.86,-2093 507.86,-2115 595.86,-2115 595.86,-2093 507.86,-2093"/>
<polygon fill="none" stroke="black" points="507.86,-2093 507.86,-2115 595.86,-2115 595.86,-2093 507.86,-2093"/>
<text text-anchor="start" x="531.23" y="-2098.7" font-family="Times,serif" font-size="14.00">product</text>
<polygon fill="none" stroke="black" points="507.86,-2071 507.86,-2093 595.86,-2093 595.86,-2071 507.86,-2071"/>
<text text-anchor="start" x="527.86" y="-2077.7" font-family="Times,serif" font-size="14.00">id:</text>
<text text-anchor="start" x="542.11" y="-2077.7" font-family="Helvetica,sans-Serif" font-style="oblique" font-size="10.00">BIGINT</text>
<polygon fill="none" stroke="black" points="507.86,-2049 507.86,-2071 595.86,-2071 595.86,-2049 507.86,-2049"/>
<text text-anchor="start" x="510.61" y="-2055.7" font-family="Times,serif" font-size="14.00">name:</text>
<text text-anchor="start" x="544.36" y="-2055.7" font-family="Helvetica,sans-Serif" font-style="oblique" font-size="10.00">VARCHAR</text>
</g>
<!-- product_category_map -->
<g id="node20" class="node">
<title>product_category_map</title>
<polygon fill="#dddddd" stroke="none" points="486.36,-2207 486.36,-2229 617.36,-2229 617.36,-2207 486.36,-2207"/>
<polygon fill="none" stroke="black" points="486.36,-2207 486.36,-2229 617.36,-2229 617.36,-2207 486.36,-2207"/>
<text text-anchor="start" x="489.23" y="-2212.7" font-family="Times,serif" font-size="14.00">product_category_map</text>
<polygon fill="none" stroke="black" points="486.36,-2185 486.36,-2207 617.36,-2207 617.36,-2185 486.36,-2185"/>
<text text-anchor="start" x="527.86" y="-2191.7" font-family="Times,serif" font-size="14.00">id:</text>
<text text-anchor="start" x="542.11" y="-2191.7" font-family="Helvetica,sans-Serif" font-style="oblique" font-size="10.00">BIGINT</text>
<polygon fill="none" stroke="black" points="486.36,-2163 486.36,-2185 617.36,-2185 617.36,-2163 486.36,-2163"/>
<text text-anchor="start" x="512.48" y="-2169.7" font-family="Times,serif" font-size="14.00">product_id:</text>
<text text-anchor="start" x="574.73" y="-2169.7" font-family="Helvetica,sans-Serif" font-style="oblique" font-size="10.00">INT</text>
<polygon fill="none" stroke="black" points="486.36,-2141 486.36,-2163 617.36,-2163 617.36,-2141 486.36,-2141"/>
<text text-anchor="start" x="509.86" y="-2147.7" font-family="Times,serif" font-size="14.00">category_id:</text>
<text text-anchor="start" x="577.36" y="-2147.7" font-family="Helvetica,sans-Serif" font-style="oblique" font-size="10.00">INT</text>
</g>
<!-- product_category_price_map -->
<g id="node21" class="node">
<title>product_category_price_map</title>
<polygon fill="#dddddd" stroke="none" points="469.36,-2321 469.36,-2343 634.36,-2343 634.36,-2321 469.36,-2321"/>
<polygon fill="none" stroke="black" points="469.36,-2321 469.36,-2343 634.36,-2343 634.36,-2321 469.36,-2321"/>
<text text-anchor="start" x="472.36" y="-2326.7" font-family="Times,serif" font-size="14.00">product_category_price_map</text>
<polygon fill="none" stroke="black" points="469.36,-2299 469.36,-2321 634.36,-2321 634.36,-2299 469.36,-2299"/>
<text text-anchor="start" x="527.86" y="-2305.7" font-family="Times,serif" font-size="14.00">id:</text>
<text text-anchor="start" x="542.11" y="-2305.7" font-family="Helvetica,sans-Serif" font-style="oblique" font-size="10.00">BIGINT</text>
<polygon fill="none" stroke="black" points="469.36,-2277 469.36,-2299 634.36,-2299 634.36,-2277 469.36,-2277"/>
<text text-anchor="start" x="485.86" y="-2283.7" font-family="Times,serif" font-size="14.00">product_category_id:</text>
<text text-anchor="start" x="601.36" y="-2283.7" font-family="Helvetica,sans-Serif" font-style="oblique" font-size="10.00">INT</text>
<polygon fill="none" stroke="black" points="469.36,-2255 469.36,-2277 634.36,-2277 634.36,-2255 469.36,-2255"/>
<text text-anchor="start" x="513.98" y="-2261.7" font-family="Times,serif" font-size="14.00">price:</text>
<text text-anchor="start" x="544.73" y="-2261.7" font-family="Helvetica,sans-Serif" font-style="oblique" font-size="10.00">DECIMAL</text>
</g>
<!-- product_inventory_map -->
<g id="node22" class="node">
<title>product_inventory_map</title>
<polygon fill="#dddddd" stroke="none" points="482.86,-2457 482.86,-2479 620.86,-2479 620.86,-2457 482.86,-2457"/>
<polygon fill="none" stroke="black" points="482.86,-2457 482.86,-2479 620.86,-2479 620.86,-2457 482.86,-2457"/>
<text text-anchor="start" x="486.61" y="-2462.7" font-family="Times,serif" font-size="14.00">product_inventory_map</text>
<polygon fill="none" stroke="black" points="482.86,-2435 482.86,-2457 620.86,-2457 620.86,-2435 482.86,-2435"/>
<text text-anchor="start" x="527.86" y="-2441.7" font-family="Times,serif" font-size="14.00">id:</text>
<text text-anchor="start" x="542.11" y="-2441.7" font-family="Helvetica,sans-Serif" font-style="oblique" font-size="10.00">BIGINT</text>
<polygon fill="none" stroke="black" points="482.86,-2413 482.86,-2435 620.86,-2435 620.86,-2413 482.86,-2413"/>
<text text-anchor="start" x="485.86" y="-2419.7" font-family="Times,serif" font-size="14.00">product_category_id:</text>
<text text-anchor="start" x="601.36" y="-2419.7" font-family="Helvetica,sans-Serif" font-style="oblique" font-size="10.00">INT</text>
<polygon fill="none" stroke="black" points="482.86,-2391 482.86,-2413 620.86,-2413 620.86,-2391 482.86,-2391"/>
<text text-anchor="start" x="519.61" y="-2397.7" font-family="Times,serif" font-size="14.00">quantity:</text>
<text text-anchor="start" x="567.61" y="-2397.7" font-family="Helvetica,sans-Serif" font-style="oblique" font-size="10.00">INT</text>
<polygon fill="none" stroke="black" points="482.86,-2369 482.86,-2391 620.86,-2391 620.86,-2369 482.86,-2369"/>
<text text-anchor="start" x="509.11" y="-2375.7" font-family="Times,serif" font-size="14.00">weight:</text>
<text text-anchor="start" x="549.61" y="-2375.7" font-family="Helvetica,sans-Serif" font-style="oblique" font-size="10.00">DECIMAL</text>
</g>
<!-- user -->
<g id="node23" class="node">
<title>user</title>
<polygon fill="#dddddd" stroke="none" points="493.36,-2571 493.36,-2593 610.36,-2593 610.36,-2571 493.36,-2571"/>
<polygon fill="none" stroke="black" points="493.36,-2571 493.36,-2593 610.36,-2593 610.36,-2571 493.36,-2571"/>
<text text-anchor="start" x="540.61" y="-2576.7" font-family="Times,serif" font-size="14.00">user</text>
<polygon fill="none" stroke="black" points="493.36,-2549 493.36,-2571 610.36,-2571 610.36,-2549 493.36,-2549"/>
<text text-anchor="start" x="527.86" y="-2555.7" font-family="Times,serif" font-size="14.00">id:</text>
<text text-anchor="start" x="542.11" y="-2555.7" font-family="Helvetica,sans-Serif" font-style="oblique" font-size="10.00">BIGINT</text>
<polygon fill="none" stroke="black" points="493.36,-2527 493.36,-2549 610.36,-2549 610.36,-2527 493.36,-2527"/>
<text text-anchor="start" x="497.86" y="-2533.7" font-family="Times,serif" font-size="14.00">last_name:</text>
<text text-anchor="start" x="557.11" y="-2533.7" font-family="Helvetica,sans-Serif" font-style="oblique" font-size="10.00">VARCHAR</text>
<polygon fill="none" stroke="black" points="493.36,-2505 493.36,-2527 610.36,-2527 610.36,-2505 493.36,-2505"/>
<text text-anchor="start" x="496.36" y="-2511.7" font-family="Times,serif" font-size="14.00">first_name:</text>
<text text-anchor="start" x="558.61" y="-2511.7" font-family="Helvetica,sans-Serif" font-style="oblique" font-size="10.00">VARCHAR</text>
</g>
<!-- user_order_map -->
<g id="node24" class="node">
<title>user_order_map</title>
<polygon fill="#dddddd" stroke="none" points="504.86,-2685 504.86,-2707 598.86,-2707 598.86,-2685 504.86,-2685"/>
<polygon fill="none" stroke="black" points="504.86,-2685 504.86,-2707 598.86,-2707 598.86,-2685 504.86,-2685"/>
<text text-anchor="start" x="507.61" y="-2690.7" font-family="Times,serif" font-size="14.00">user_order_map</text>
<polygon fill="none" stroke="black" points="504.86,-2663 504.86,-2685 598.86,-2685 598.86,-2663 504.86,-2663"/>
<text text-anchor="start" x="527.86" y="-2669.7" font-family="Times,serif" font-size="14.00">id:</text>
<text text-anchor="start" x="542.11" y="-2669.7" font-family="Helvetica,sans-Serif" font-style="oblique" font-size="10.00">BIGINT</text>
<polygon fill="none" stroke="black" points="504.86,-2641 504.86,-2663 598.86,-2663 598.86,-2641 504.86,-2641"/>
<text text-anchor="start" x="513.23" y="-2647.7" font-family="Times,serif" font-size="14.00">user_id:</text>
<text text-anchor="start" x="556.73" y="-2647.7" font-family="Helvetica,sans-Serif" font-style="oblique" font-size="10.00">BIGINT</text>
<polygon fill="none" stroke="black" points="504.86,-2619 504.86,-2641 598.86,-2641 598.86,-2619 504.86,-2619"/>
<text text-anchor="start" x="510.23" y="-2625.7" font-family="Times,serif" font-size="14.00">order_id:</text>
<text text-anchor="start" x="559.73" y="-2625.7" font-family="Helvetica,sans-Serif" font-style="oblique" font-size="10.00">BIGINT</text>
</g>
</g>
</svg>
